<?xml version="1.0" encoding="UTF-8" standalone="no"?>
<svg
   xmlns:dc="http://purl.org/dc/elements/1.1/"
   xmlns:cc="http://creativecommons.org/ns#"
   xmlns:rdf="http://www.w3.org/1999/02/22-rdf-syntax-ns#"
   xmlns:svg="http://www.w3.org/2000/svg"
   xmlns="http://www.w3.org/2000/svg"
   xmlns:sodipodi="http://sodipodi.sourceforge.net/DTD/sodipodi-0.dtd"
   xmlns:inkscape="http://www.inkscape.org/namespaces/inkscape"
   viewBox="0 0 36 36"
   version="1.1"
   id="svg885"
   sodipodi:docname="logo.svg"
   inkscape:version="1.0.1 (3bc2e813f5, 2020-09-07)">
  <metadata
     id="metadata891">
    <rdf:RDF>
      <cc:Work
         rdf:about="">
        <dc:format>image/svg+xml</dc:format>
        <dc:type
           rdf:resource="http://purl.org/dc/dcmitype/StillImage" />
      </cc:Work>
    </rdf:RDF>
  </metadata>
  <defs
     id="defs889">
    <filter
       inkscape:label="Metallized Paint"
       inkscape:menu="Materials"
       inkscape:menu-tooltip="Metallized effect with a soft lighting, slightly translucent at the edges"
       style="color-interpolation-filters:sRGB;"
       id="filter1343">
      <feGaussianBlur
         stdDeviation="1"
         result="result1"
         id="feGaussianBlur1317" />
      <feComposite
         in="result1"
         in2="result1"
         result="result4"
         operator="in"
         id="feComposite1319" />
      <feBlend
         in="result1"
         mode="screen"
         result="result5"
         in2="result4"
         id="feBlend1321" />
      <feGaussianBlur
         stdDeviation="8"
         result="result6"
         in="result5"
         id="feGaussianBlur1323" />
      <feComposite
         operator="atop"
         in="result6"
         in2="result5"
         result="result8"
         id="feComposite1325" />
      <feComposite
         operator="in"
         result="fbSourceGraphic"
         in="result6"
         in2="result8"
         id="feComposite1327" />
      <feGaussianBlur
         result="result0"
         in="fbSourceGraphic"
         stdDeviation="2.5"
         id="feGaussianBlur1329" />
      <feSpecularLighting
         specularExponent="45"
         specularConstant="1.5"
         surfaceScale="1"
         lighting-color="rgb(255,255,255)"
         result="result1"
         in="result0"
         id="feSpecularLighting1333">
        <fePointLight
           z="21000"
           y="-9000"
           x="-6000"
           id="fePointLight1331" />
      </feSpecularLighting>
      <feComposite
         operator="in"
         result="result2"
         in="result1"
         in2="fbSourceGraphic"
         id="feComposite1335" />
      <feComposite
         k3="1"
         k2="1"
         operator="arithmetic"
         result="result4"
         in="fbSourceGraphic"
         in2="result2"
         id="feComposite1337" />
      <feComposite
         operator="in"
         in="result9"
         in2="result4"
         result="result91"
         id="feComposite1339" />
      <feBlend
         mode="multiply"
         in2="result91"
         id="feBlend1341" />
    </filter>
    <filter
       inkscape:label="Metallized Paint"
       inkscape:menu="Materials"
       inkscape:menu-tooltip="Metallized effect with a soft lighting, slightly translucent at the edges"
       style="color-interpolation-filters:sRGB"
       id="filter1343-3">
      <feGaussianBlur
         stdDeviation="1"
         result="result1"
         id="feGaussianBlur1317-6" />
      <feComposite
         in="result1"
         in2="result1"
         result="result4"
         operator="in"
         id="feComposite1319-7" />
      <feBlend
         in="result1"
         mode="screen"
         result="result5"
         in2="result4"
         id="feBlend1321-5" />
      <feGaussianBlur
         stdDeviation="8"
         result="result6"
         in="result5"
         id="feGaussianBlur1323-3" />
      <feComposite
         operator="atop"
         in="result6"
         in2="result5"
         result="result8"
         id="feComposite1325-5" />
      <feComposite
         operator="in"
         result="fbSourceGraphic"
         in="result6"
         in2="result8"
         id="feComposite1327-6" />
      <feGaussianBlur
         result="result0"
         in="fbSourceGraphic"
         stdDeviation="2.5"
         id="feGaussianBlur1329-2" />
      <feSpecularLighting
         specularExponent="45"
         specularConstant="1.5"
         surfaceScale="1"
         lighting-color="#ffffff"
         result="result1"
         in="result0"
         id="feSpecularLighting1333-9">
        <fePointLight
           z="21000"
           y="-9000"
           x="-6000"
           id="fePointLight1331-1" />
      </feSpecularLighting>
      <feComposite
         operator="in"
         result="result2"
         in="result1"
         in2="fbSourceGraphic"
         id="feComposite1335-2" />
      <feComposite
         k3="1"
         k2="1"
         operator="arithmetic"
         result="result4"
         in="fbSourceGraphic"
         in2="result2"
         id="feComposite1337-7"
         k1="0"
         k4="0" />
      <feComposite
         operator="in"
         in2="result4"
         result="result91"
         id="feComposite1339-0" />
      <feBlend
         mode="multiply"
         in2="result91"
         id="feBlend1341-9" />
    </filter>
  </defs>
  <sodipodi:namedview
     pagecolor="#ffffff"
     bordercolor="#666666"
     borderopacity="1"
     objecttolerance="10"
     gridtolerance="10"
     guidetolerance="10"
     inkscape:pageopacity="0"
     inkscape:pageshadow="2"
     inkscape:window-width="2560"
     inkscape:window-height="1389"
     id="namedview887"
     showgrid="false"
     inkscape:zoom="23.491659"
     inkscape:cx="23.874335"
     inkscape:cy="18.841963"
     inkscape:window-x="0"
     inkscape:window-y="240"
     inkscape:window-maximized="1"
     inkscape:current-layer="layer1" />
  <g
     inkscape:groupmode="layer"
     id="layer2"
     inkscape:label="below">
    <path
       id="path1285"
       d="m 15.767805,0.580724 c -5.132,0 -9.473875,3.3791562 -10.921875,8.0351561 -2.658,0.617 -4.64062496,2.9948439 -4.64062496,5.8398439 0,2.979 2.17448396,5.444109 5.02148396,5.912109 0.216,3.949 3.476516,7.087891 7.478516,7.087891 2.176,0 4.13,-0.932109 5.5,-2.412109 1.37,1.48 3.323,2.412109 5.5,2.412109 4.143,0 7.5,-3.357 7.5,-7.5 0,-0.71 -0.105062,-1.393922 -0.289062,-2.044922 2.518999,-1.059 4.289062,-3.550078 4.289062,-6.455078 0,-3.8660002 -3.134,-7 -7,-7 -1.167,0 -2.265422,0.2909219 -3.232422,0.7949219 -2.082,-2.827 -5.425078,-4.6699219 -9.205078,-4.6699219 z m -11.613281,26.875 a 3,3 0 0 0 -2.949219,3 3,3 0 0 0 3,3 3,3 0 0 0 3,-3 3,3 0 0 0 -3,-3 3,3 0 0 0 -0.050781,0 z"
       style="fill:#a02c89;stroke:#2d1650" />
  </g>
  <g
     inkscape:groupmode="layer"
     id="layer1"
     inkscape:label="above"
     style="display:inline;mix-blend-mode:luminosity">
    <path
       id="path881"
       d="m 15.5625,1.1250004 c -5.132,0 -9.473875,3.3791562 -10.921875,8.0351559 C 1.982625,9.7771563 0,12.155 0,15 0,17.979 2.1744844,20.444109 5.0214844,20.912109 5.2374844,24.861109 8.498,28 12.5,28 14.676,28 16.63,27.067891 18,25.587891 19.37,27.067891 21.323,28 23.5,28 27.643,28 31,24.643 31,20.5 31,19.79 30.894938,19.106078 30.710938,18.455078 33.229937,17.396078 35,14.905 35,12 35,8.1340003 31.866,5.0000004 28,5.0000004 c -1.167,0 -2.265422,0.2909219 -3.232422,0.7949219 -2.082,-2.827 -5.425078,-4.6699219 -9.205078,-4.6699219 z M 3.9492188,28 A 3,3 0 0 0 1,31 3,3 0 0 0 4,34 3,3 0 0 0 7,31 3,3 0 0 0 4,28 3,3 0 0 0 3.9492188,28 Z"
       style="fill:#d40055;filter:url(#filter1343-3)" />
  </g>
</svg>
